{"accessors" : [{"bufferView" : 0, "byteOffset" : 0, "componentType" : 5123, "count" : 10368, "type" : "SCALAR", "max" : [8923], "min" : [0]}, {"bufferView" : 1, "byteOffset" : 0, "componentType" : 5126, "count" : 8924, "type" : "VEC3", "max" : [7.446943759918213, 16.841848373413086, 7.022648811340332], "min" : [-7.022651195526123, 1.5507746934890747, -7.4469451904296875], "name" : "POSITION"}, {"bufferView" : 1, "byteOffset" : 12, "componentType" : 5126, "count" : 8924, "type" : "VEC3", "max" : [0.9969034790992737, 0.9999287128448486, 0.9968847632408142], "min" : [-0.9968849420547485, -0.6777381300926208, -0.996884822845459], "name" : "NORMAL"}, {"bufferView" : 1, "byteOffset" : 24, "componentType" : 5126, "count" : 8924, "type" : "VEC2", "max" : [2.0208330154418945, 1.029646396636963], "min" : [0, -0.0320819616317749], "name" : "TEXCOORD_0"}, {"bufferView" : 0, "byteOffset" : 20736, "componentType" : 5123, "count" : 13038, "type" : "SCALAR", "max" : [11162], "min" : [0]}, {"bufferView" : 2, "byteOffset" : 0, "componentType" : 5126, "count" : 11163, "type" : "VEC3", "max" : [1.172148585319519, -0.7384772300720215, 0.3878523111343384], "min" : [-0.7478522658348083, -1.7000000476837158, -0.8121483325958252], "name" : "POSITION"}, {"bufferView" : 2, "byteOffset" : 12, "componentType" : 5126, "count" : 11163, "type" : "VEC3", "max" : [1.0000044107437134, 0.0020938380621373653, 1.0000044107437134], "min" : [-1.0000044107437134, -1.0000044107437134, -1.0000044107437134], "name" : "NORMAL"}, {"bufferView" : 2, "byteOffset" : 24, "componentType" : 5126, "count" : 11163, "type" : "VEC2", "max" : [3.259212017059326, 0.5848867893218994], "min" : [0.41511270403862, -2.3048861026763916], "name" : "TEXCOORD_0"}, {"bufferView" : 0, "byteOffset" : 46812, "componentType" : 5123, "count" : 15588, "type" : "SCALAR", "max" : [12980], "min" : [0]}, {"bufferView" : 3, "byteOffset" : 0, "componentType" : 5126, "count" : 12981, "type" : "VEC3", "max" : [1.232146143913269, 0.42929863929748535, 0.44697076082229614], "min" : [-0.8078480362892151, -0.8951036930084229, -0.871281623840332], "name" : "POSITION"}, {"bufferView" : 3, "byteOffset" : 12, "componentType" : 5126, "count" : 12981, "type" : "VEC3", "max" : [0.9999753832817078, 0.9999790787696838, 0.9860496520996094], "min" : [-0.999975323677063, -0.9999752640724182, -0.985811710357666], "name" : "NORMAL"}, {"bufferView" : 0, "byteOffset" : 77988, "componentType" : 5123, "count" : 390, "type" : "SCALAR", "max" : [389], "min" : [0]}, {"bufferView" : 4, "byteOffset" : 0, "componentType" : 5126, "count" : 390, "type" : "VEC3", "max" : [0.44214797019958496, 0.4912322461605072, 0.017852025106549263], "min" : [-0.017852021381258965, 0.39999985694885254, -0.44214797019958496], "name" : "POSITION"}, {"bufferView" : 4, "byteOffset" : 12, "componentType" : 5126, "count" : 390, "type" : "VEC3", "max" : [1.0000044107437134, 1.0000044107437134, 1.0000044107437134], "min" : [-1.0000044107437134, -9.360881085740402E-05, -1.0000044107437134], "name" : "NORMAL"}, {"bufferView" : 4, "byteOffset" : 24, "componentType" : 5126, "count" : 390, "type" : "VEC2", "max" : [1.565392017364502, 2.0576159954071045], "min" : [-0.5488278865814209, -1.75], "name" : "TEXCOORD_0"}, {"bufferView" : 0, "byteOffset" : 78768, "componentType" : 5123, "count" : 288, "type" : "SCALAR", "max" : [287], "min" : [0]}, {"bufferView" : 5, "byteOffset" : 0, "componentType" : 5126, "count" : 288, "type" : "VEC3", "max" : [1.4908758401870728, 1.5559875965118408, 1.0665804147720337], "min" : [-1.0665801763534546, 0.3933541476726532, -1.4908758401870728], "name" : "POSITION"}, {"bufferView" : 5, "byteOffset" : 12, "componentType" : 5126, "count" : 288, "type" : "VEC3", "max" : [0.922939121723175, 0.5831578373908997, 0.9408435225486755], "min" : [-1.0000044107437134, -0.5813828706741333, -1.0000044107437134], "name" : "NORMAL"}], "asset" : {"generator" : "Aspose.3D 21.10", "version" : "2.0"}, "buffers" : [{"uri" : "data:application/octet-stream;base64,", "byteLength" : 1221864}], "bufferViews" : [{"buffer" : 0, "byteOffset" : 0, "byteLength" : 79344, "target" : 34963}, {"buffer" : 0, "byteOffset" : 79348, "byteLength" : 331776, "byteStride" : 32, "target" : 34962}, {"buffer" : 0, "byteOffset" : 411128, "byteLength" : 417216, "byteStride" : 32, "target" : 34962}, {"buffer" : 0, "byteOffset" : 828348, "byteLength" : 374112, "byteStride" : 24, "target" : 34962}, {"buffer" : 0, "byteOffset" : 1202464, "byteLength" : 12480, "byteStride" : 32, "target" : 34962}, {"buffer" : 0, "byteOffset" : 1214948, "byteLength" : 6912, "byteStride" : 24, "target" : 34962}], "images" : [{"uri" : "data:image/jpeg;base64,"}, {"uri" : "data:image/jpeg;base64,"}, {"uri" : "data:image/jpeg;base64,"}], "materials" : [{"name" : "BalloonMaterial", "pbrMetallicRoughness" : {"baseColorFactor" : [1, 1, 1, 1], "baseColorTexture" : {"index" : 0, "texCoord" : 0}, "metallicFactor" : 0, "roughnessFactor" : 0.5}, "emissiveFactor" : [0, 0, 0], "alphaMode" : "OPAQUE", "doubleSided" : true}, {"name" : "Basket_Material", "pbrMetallicRoughness" : {"baseColorFactor" : [1, 1, 1, 1], "baseColorTexture" : {"index" : 1, "texCoord" : 0}, "metallicFactor" : 0, "roughnessFactor" : 0.5}, "emissiveFactor" : [0, 0, 0], "alphaMode" : "OPAQUE", "doubleSided" : true}, {"pbrMetallicRoughness" : {"baseColorFactor" : [0.2674582004547119, 0.06383057683706284, 0.009563954547047615, 1], "metallicFactor" : 0, "roughnessFactor" : 0.5}, "emissiveFactor" : [0, 0, 0], "alphaMode" : "OPAQUE", "doubleSided" : true}, {"name" : "FlameGrate", "pbrMetallicRoughness" : {"baseColorFactor" : [1, 1, 1, 1], "baseColorTexture" : {"index" : 2, "texCoord" : 0}, "metallicFactor" : 0, "roughnessFactor" : 0.5}, "emissiveFactor" : [0, 0, 0], "alphaMode" : "OPAQUE", "doubleSided" : true}, {"name" : "Black", "pbrMetallicRoughness" : {"baseColorFactor" : [0, 0, 0, 1], "metallicFactor" : 0, "roughnessFactor" : 0.5}, "emissiveFactor" : [0, 0, 0], "alphaMode" : "OPAQUE", "doubleSided" : true}], "meshes" : [{"primitives" : [{"attributes" : {"POSITION" : 1, "NORMAL" : 2, "TEXCOORD_0" : 3}, "indices" : 0, "material" : 0, "mode" : 4}, {"attributes" : {"POSITION" : 5, "NORMAL" : 6, "TEXCOORD_0" : 7}, "indices" : 4, "material" : 1, "mode" : 4}, {"attributes" : {"POSITION" : 9, "NORMAL" : 10}, "indices" : 8, "material" : 2, "mode" : 4}, {"attributes" : {"POSITION" : 12, "NORMAL" : 13, "TEXCOORD_0" : 14}, "indices" : 11, "material" : 3, "mode" : 4}, {"attributes" : {"POSITION" : 16, "NORMAL" : 17}, "indices" : 15, "material" : 4, "mode" : 4}]}], "nodes" : [{"mesh" : 0}], "samplers" : [{"magFilter" : 9729, "minFilter" : 9729, "wrapS" : 10497, "wrapT" : 10497}, {"magFilter" : 9729, "minFilter" : 9729, "wrapS" : 10497, "wrapT" : 10497}, {"magFilter" : 9729, "minFilter" : 9729, "wrapS" : 10497, "wrapT" : 10497}], "scene" : 0, "scenes" : [{"nodes" : [0]}], "textures" : [{"sampler" : 0, "source" : 0}, {"sampler" : 1, "source" : 1}, {"sampler" : 2, "source" : 2}]}